<?xml version="1.0" encoding="UTF-8" standalone="no"?>
<!DOCTYPE svg PUBLIC "-//W3C//DTD SVG 1.1//EN" "http://www.w3.org/Graphics/SVG/1.1/DTD/svg11.dtd">
<svg width="100%" height="100%" viewBox="0 0 325 325" version="1.1" xmlns="http://www.w3.org/2000/svg" xmlns:xlink="http://www.w3.org/1999/xlink" xml:space="preserve" xmlns:serif="http://www.serif.com/" style="fill-rule:evenodd;clip-rule:evenodd;stroke-linejoin:round;stroke-miterlimit:2;">
    <g transform="matrix(1,0,0,1,-160.459,-592.045)">
        <g transform="matrix(1.03594,0,0,1.00721,-201.714,327.085)">
            <g transform="matrix(1,0,0,1,-231.303,184.031)">
                <path d="M711.03,79.186C718.755,78.571 723.677,79.81 730.859,82.705C738.757,85.889 742.26,93.576 749,97.319C765.08,106.434 785.505,111.946 800.259,122.922C813.035,132.426 812.605,147.531 812.176,161.528C811.595,180.462 815.88,188.256 793.004,188.396L793.011,198.976C798.118,198.856 803.227,198.885 808.333,199.061C813.102,201.554 828.712,217.244 829.073,222.689C826.725,227.128 822.535,231.178 819.113,234.72C815.829,238.118 812.59,242.179 808.359,244.164C804.366,246.039 800.45,241.433 802.739,237.799C806.446,231.914 811.508,227.03 816.328,222.077L804.965,209.826C794.809,209.049 779.637,209.519 769.174,209.532C764.929,213.297 760.447,218.078 756.738,222.345C759.922,225.234 772.554,238.281 768.924,242.629C762.743,250.034 753.126,233.953 748.991,230.372C746.69,228.379 744.392,223.999 743.932,221.069C744.695,217.43 755.298,208.077 758.343,204.231C763.645,197.534 773.687,198.766 781.974,198.838L782.016,188.429C773.621,188.512 769.18,189.479 764.08,181.819C763.494,175.561 763.869,162.688 763.856,156.031C754.627,152.946 745.379,149.924 736.11,146.964C728.093,151.948 726.597,152.412 717.164,153.53C713.783,156.201 704.967,165.466 701.462,168.928C688.784,181.489 676.229,194.173 663.798,206.977C664.904,211.512 664.97,215.662 665.031,220.298C671.302,230.544 684.522,247.099 692.101,257.424L723.573,300.293C730.699,310.032 734.004,316.654 743.155,324.568C753.567,333.574 751.154,354.89 751.047,368.191C770.912,367.802 776.501,369.477 774.32,392.709C773.722,399.077 769.382,400.914 763.694,401.291C757.484,401.704 751.035,401.534 744.698,401.53L711.111,401.523L663.023,401.507C655.646,401.505 634.752,402.643 628.644,399.483C622.81,396.465 622.305,376.726 627.268,371.983C632.455,367.024 642.404,368.207 649.294,368.302C649.462,340.985 650.625,346.716 637.456,323.251C624.827,300.855 611.952,278.598 598.834,256.484C594.616,249.345 589.235,242.849 585.393,235.655C578.134,222.309 579.776,202.039 589.7,190.377C597.205,181.559 606.687,172.635 614.928,164.305L659.481,119.06C664.564,113.937 669.75,108.798 674.711,103.605C682.663,95.279 689.875,85.887 700.899,81.485C704.623,79.998 707.124,79.651 711.03,79.186ZM711.228,90.245C696.73,92.169 686.542,105.488 688.479,119.984C690.417,134.48 703.745,144.656 718.239,142.705C732.714,140.757 742.874,127.45 740.939,112.973C739.004,98.496 725.707,88.324 711.228,90.245ZM620.078,186.127C603.226,187.69 590.834,202.622 592.404,219.474C593.975,236.326 608.913,248.711 625.764,247.132C642.604,245.554 654.979,230.628 653.409,213.788C651.84,196.947 636.919,184.565 620.078,186.127ZM677.413,117.404C670.248,123.823 662.317,132.12 655.453,139.022L619.702,174.931C633.064,175.12 643.449,178.333 653.033,188.1C655.876,191.163 657.192,192.657 659.541,196.071C671.904,183.452 683.879,170.49 696.446,158.067C698.467,156.07 700.652,153.939 702.521,151.809C686.867,145.01 678.782,134.751 677.413,117.404ZM661.129,233.791C650.115,253.739 634.08,261.307 611.696,257.431C622.316,274.724 631.989,292.788 642.362,310.238C646.116,316.555 650.455,325.214 654.369,331.013C657.011,327.443 659.031,324.959 662.536,322.136C675.624,312.493 686.183,313.376 701.785,313.354C707.707,313.346 714.873,313.204 720.67,313.951C707.177,296.112 693.832,278.161 680.639,260.1C676.126,253.958 665.694,238.751 661.129,233.791ZM688.793,324.204C679.853,324.938 673.609,326.382 667.022,333.465C658.682,342.432 660.44,356.392 660.505,368.254L712.75,368.198L740.645,368.218C740.609,362.934 740.487,357.33 740.642,352.073C741.563,320.755 710.652,323.237 688.793,324.204ZM752.026,111.679C752.104,124.329 751.694,126.737 745.78,138.128L769.662,146.208C773.938,147.645 778.074,148.794 782.296,150.673C786.026,152.334 787.273,157.992 783.198,159.918C781.356,160.789 776.983,159.975 774.785,159.847C774.734,165.421 774.814,171.949 774.532,177.432L783.79,177.436L801.448,177.513C801.712,144.555 807.235,134.281 772.925,121.23C767.044,118.993 757.916,114.367 752.026,111.679ZM635.043,379.011L635.036,390.673L719.611,390.68C734.096,390.686 749.569,390.958 763.978,390.663L763.967,379.004L635.043,379.011Z" style="fill:white;"/>
            </g>
            <g>
                <g transform="matrix(1,0,0,1,-231.303,184.031)">
                    <path d="M763.854,258.075C772.292,257.702 782.058,257.845 790.479,257.947C799.474,258.055 820.045,254.912 819.815,268.12C819.724,273.381 817.168,275.699 813.717,278.896C813.205,297.452 814.265,316.985 813.705,335.64C813.417,345.202 811.625,351.283 804.606,357.929C793.925,367.239 779.33,366.843 768.704,357.646C758.501,348.816 760.714,334.482 760.732,322.191C760.844,307.758 760.805,293.324 760.613,278.891C750.067,272.145 752.168,260.884 763.854,258.075ZM766.096,269.019C766.432,269.351 766.765,269.688 767.094,270.028C769.673,272.705 771.128,275.01 771.36,278.789C771.766,285.41 771.452,292.821 771.334,299.427L803.148,299.486C803.16,293.119 802.794,286.721 802.859,280.355C802.923,274.056 804.316,272.306 809.153,268.972C794.801,268.895 780.448,268.911 766.096,269.019Z" style="fill:white;"/>
                </g>
                <g transform="matrix(1,0,0,1,-231.303,184.031)">
                    <path d="M771.334,299.427L803.148,299.486C803.101,306.323 803.66,337.008 802.56,341.801C801.855,344.884 800.351,347.728 798.2,350.047C792.448,356.129 781.822,356.552 775.895,350.537C769.769,344.32 771.245,333.54 771.286,325.401L771.334,299.427Z" style="fill:rgb(0,164,193);fill-rule:nonzero;"/>
                </g>
            </g>
            <g transform="matrix(1,0,0,1,-231.303,184.031)">
                <path d="M857.242,104.005C857.811,103.982 860.405,103.903 860.564,103.986C866.755,107.19 863.939,116.291 869.591,123.875C877.657,134.697 889.677,132.938 894.523,138.688C895.785,143.856 885.899,144.09 882.651,145.18C873.897,148.118 868.097,155.074 865.817,163.953C864.937,167.383 863.656,172.662 861.989,175.6C854.802,177.451 855.515,168.175 853.856,162.94C852.942,160.002 851.603,157.213 849.881,154.662C841.111,141.916 831.134,146.53 825.57,140.675C824.372,136.203 834.379,134.112 837.743,133.034C854.743,127.589 851.631,115.643 857.242,104.005ZM859.917,127.436C856.315,132.586 853.442,135.743 848.188,139.377C856.73,145.573 854.457,144.496 860.155,151.531C864.129,145.741 865.95,143.402 871.72,139.331C865.958,134.965 864.333,133.197 859.917,127.436Z" style="fill:white;"/>
            </g>
        </g>
    </g>
</svg>
