<?xml version="1.0" encoding="UTF-8" standalone="no"?>
<!DOCTYPE svg PUBLIC "-//W3C//DTD SVG 1.1//EN" "http://www.w3.org/Graphics/SVG/1.1/DTD/svg11.dtd">
<svg width="100%" height="100%" viewBox="0 0 375 375" version="1.1" xmlns="http://www.w3.org/2000/svg" xmlns:xlink="http://www.w3.org/1999/xlink" xml:space="preserve" xmlns:serif="http://www.serif.com/" style="fill-rule:evenodd;clip-rule:evenodd;stroke-linejoin:round;stroke-miterlimit:2;">
    <g transform="matrix(1,0,0,1,-558.931,-48.8497)">
        <g>
            <g>
                <g transform="matrix(1.01276,0,0,0.997844,-7.13053,0.105315)">
                    <path d="M608.962,49.194C612.955,48.777 620.62,48.953 624.764,48.956L652.596,48.987L743.124,48.991L834.671,48.987C850.23,48.982 866.79,48.452 882.247,49.508C903.369,50.95 925.525,71.204 928.075,92.329C929.837,106.924 929.017,124.649 929.012,139.54L929.023,229.796L929.045,327.717L929.048,357.823C929.045,363.588 929.23,371.66 928.608,377.209C927.591,385.835 924.427,394.069 919.403,401.156C909.505,414.861 896.451,421.328 880.123,423.933C866.161,425.171 841.403,424.454 826.894,424.448L729.337,424.456L648.681,424.477C634.4,424.479 619.152,424.941 604.972,423.76C597.389,423.128 585.835,417.64 579.9,413.079C569.158,404.826 561.085,391.422 559.559,377.867C558.815,371.516 559.016,364.857 559.015,358.44L559.024,330.122L559.044,236.869L559.016,141.554L559.015,113.595C559.016,107.677 558.636,100.506 559.481,94.699C563.318,68.321 583.674,52.236 608.962,49.194Z" style="fill:rgb(10,40,73);fill-rule:nonzero;"/>
                </g>
                <g transform="matrix(1.01481,0,0,1.00067,-8.61345,-0.722277)">
                    <path d="M606.15,60.134C615.209,59.199 637.437,59.87 647.736,59.881L728.467,59.855L830.28,59.887C844.09,59.893 866.52,59.027 879.558,59.978C885.59,60.411 891.447,62.201 896.692,65.212C906.31,70.618 914.262,80.447 917.191,91.13C919.96,101.228 918.598,137.181 918.59,150.053L918.595,261.73L918.601,337.772C918.599,350.548 918.78,363.811 918.343,376.551C918.237,379.654 914.73,388.739 912.851,391.785C905.399,403.873 895.738,409.501 882.43,412.868C873.747,414.849 840.042,414.102 829.524,414.091L728.705,414.087L649.622,414.091C636.919,414.095 622.909,414.65 610.45,413.903C590.128,412.288 570.61,395.154 569.745,374.241C569.112,358.948 569.437,343.518 569.443,328.337L569.463,222.344L569.427,138.687C569.421,125.366 568.57,109.971 569.699,96.942C571.422,77.06 588.163,64.031 606.15,60.134Z" style="fill:white;fill-rule:nonzero;"/>
                </g>
            </g>
            <g transform="matrix(1.03594,0,0,1.00721,221.757,-191.11)">
                <g>
                    <g transform="matrix(1,0,0,1,-231.303,184.031)">
                        <path d="M711.03,79.186C718.755,78.571 723.677,79.81 730.859,82.705C738.757,85.889 742.26,93.576 749,97.319C765.08,106.434 785.505,111.946 800.259,122.922C813.035,132.426 812.605,147.531 812.176,161.528C811.595,180.462 815.88,188.256 793.004,188.396L793.011,198.976C798.118,198.856 803.227,198.885 808.333,199.061C813.102,201.554 828.712,217.244 829.073,222.689C826.725,227.128 822.535,231.178 819.113,234.72C815.829,238.118 812.59,242.179 808.359,244.164C804.366,246.039 800.45,241.433 802.739,237.799C806.446,231.914 811.508,227.03 816.328,222.077L804.965,209.826C794.809,209.049 779.637,209.519 769.174,209.532C764.929,213.297 760.447,218.078 756.738,222.345C759.922,225.234 772.554,238.281 768.924,242.629C762.743,250.034 753.126,233.953 748.991,230.372C746.69,228.379 744.392,223.999 743.932,221.069C744.695,217.43 755.298,208.077 758.343,204.231C763.645,197.534 773.687,198.766 781.974,198.838L782.016,188.429C773.621,188.512 769.18,189.479 764.08,181.819C763.494,175.561 763.869,162.688 763.856,156.031C754.627,152.946 745.379,149.924 736.11,146.964C728.093,151.948 726.597,152.412 717.164,153.53C713.783,156.201 704.967,165.466 701.462,168.928C688.784,181.489 676.229,194.173 663.798,206.977C664.904,211.512 664.97,215.662 665.031,220.298C671.302,230.544 684.522,247.099 692.101,257.424L723.573,300.293C730.699,310.032 734.004,316.654 743.155,324.568C753.567,333.574 751.154,354.89 751.047,368.191C770.912,367.802 776.501,369.477 774.32,392.709C773.722,399.077 769.382,400.914 763.694,401.291C757.484,401.704 751.035,401.534 744.698,401.53L711.111,401.523L663.023,401.507C655.646,401.505 634.752,402.643 628.644,399.483C622.81,396.465 622.305,376.726 627.268,371.983C632.455,367.024 642.404,368.207 649.294,368.302C649.462,340.985 650.625,346.716 637.456,323.251C624.827,300.855 611.952,278.598 598.834,256.484C594.616,249.345 589.235,242.849 585.393,235.655C578.134,222.309 579.776,202.039 589.7,190.377C597.205,181.559 606.687,172.635 614.928,164.305L659.481,119.06C664.564,113.937 669.75,108.798 674.711,103.605C682.663,95.28 689.875,85.887 700.899,81.485C704.623,79.998 707.124,79.651 711.03,79.186Z" style="fill:rgb(10,40,73);fill-rule:nonzero;"/>
                    </g>
                    <g>
                        <g transform="matrix(1,0,0,1,-231.303,184.031)">
                            <path d="M661.129,233.791C665.694,238.751 676.126,253.958 680.639,260.1C693.832,278.161 707.177,296.112 720.67,313.951C714.873,313.204 707.707,313.346 701.785,313.354C686.183,313.376 675.624,312.493 662.536,322.136C659.031,324.959 657.011,327.443 654.369,331.013C650.455,325.214 646.116,316.555 642.362,310.238C631.989,292.788 622.316,274.724 611.696,257.431C634.08,261.307 650.115,253.739 661.129,233.791Z" style="fill:white;fill-rule:nonzero;"/>
                        </g>
                        <g transform="matrix(1,0,0,1,-231.303,184.031)">
                            <path d="M688.793,324.204C710.652,323.237 741.563,320.755 740.642,352.073C740.487,357.33 740.609,362.934 740.645,368.218L712.75,368.198L660.505,368.254C660.44,356.392 658.682,342.432 667.022,333.465C673.609,326.382 679.853,324.938 688.793,324.204Z" style="fill:white;fill-rule:nonzero;"/>
                        </g>
                        <g transform="matrix(1,0,0,1,-231.303,184.031)">
                            <path d="M620.078,186.127C636.919,184.565 651.84,196.947 653.409,213.788C654.979,230.628 642.604,245.554 625.764,247.132C608.913,248.711 593.975,236.326 592.404,219.474C590.834,202.622 603.226,187.69 620.078,186.127Z" style="fill:white;fill-rule:nonzero;"/>
                        </g>
                        <g transform="matrix(1,0,0,1,-231.303,184.031)">
                            <path d="M677.413,117.404C678.782,134.751 686.867,145.01 702.521,151.809C700.652,153.939 698.467,156.07 696.446,158.067C683.879,170.49 671.904,183.452 659.541,196.071C657.192,192.657 655.876,191.163 653.033,188.1C643.449,178.333 633.064,175.12 619.702,174.931L655.453,139.022C662.317,132.12 670.248,123.823 677.413,117.404Z" style="fill:white;fill-rule:nonzero;"/>
                        </g>
                        <g transform="matrix(1,0,0,1,-231.303,184.031)">
                            <path d="M711.228,90.245C725.707,88.324 739.004,98.496 740.939,112.973C742.874,127.45 732.714,140.757 718.239,142.705C703.745,144.656 690.417,134.48 688.479,119.984C686.542,105.488 696.73,92.169 711.228,90.245Z" style="fill:white;fill-rule:nonzero;"/>
                        </g>
                        <g transform="matrix(1,0,0,1,-231.303,184.031)">
                            <path d="M752.026,111.679C757.916,114.367 767.044,118.993 772.925,121.23C807.235,134.281 801.712,144.555 801.448,177.513L783.79,177.436L774.532,177.432C774.814,171.949 774.734,165.421 774.785,159.847C776.983,159.975 781.356,160.789 783.198,159.918C787.273,157.992 786.026,152.334 782.296,150.673C778.074,148.794 773.938,147.645 769.662,146.208L745.78,138.128C751.694,126.737 752.104,124.329 752.026,111.679Z" style="fill:white;fill-rule:nonzero;"/>
                        </g>
                        <g transform="matrix(1,0,0,1,-231.303,184.031)">
                            <path d="M635.043,379.011L763.967,379.004L763.978,390.663C749.569,390.958 734.096,390.686 719.611,390.68L635.036,390.673L635.043,379.011Z" style="fill:white;fill-rule:nonzero;"/>
                        </g>
                    </g>
                </g>
                <g>
                    <g transform="matrix(1,0,0,1,-231.303,184.031)">
                        <path d="M763.854,258.075C772.292,257.702 782.058,257.845 790.479,257.947C799.474,258.055 820.045,254.912 819.815,268.12C819.724,273.381 817.168,275.699 813.717,278.896C813.205,297.452 814.265,316.985 813.705,335.64C813.417,345.202 811.625,351.283 804.606,357.929C793.925,367.239 779.33,366.843 768.704,357.646C758.501,348.816 760.714,334.482 760.732,322.191C760.844,307.758 760.805,293.324 760.613,278.891C750.067,272.145 752.168,260.884 763.854,258.075Z" style="fill:rgb(10,40,73);fill-rule:nonzero;"/>
                    </g>
                    <g transform="matrix(1,0,0,1,-231.303,184.031)">
                        <path d="M771.334,299.427L803.148,299.486C803.101,306.323 803.66,337.008 802.56,341.801C801.855,344.884 800.351,347.728 798.2,350.047C792.448,356.129 781.822,356.552 775.895,350.537C769.769,344.32 771.245,333.54 771.286,325.401L771.334,299.427Z" style="fill:rgb(0,164,193);fill-rule:nonzero;"/>
                    </g>
                    <g transform="matrix(1,0,0,1,-231.303,184.031)">
                        <path d="M766.096,269.019C780.448,268.911 794.801,268.895 809.153,268.972C804.316,272.306 802.923,274.056 802.859,280.355C802.794,286.721 803.16,293.119 803.148,299.486L771.334,299.427C771.452,292.821 771.766,285.41 771.36,278.789C771.128,275.01 769.673,272.705 767.094,270.028C766.765,269.688 766.432,269.351 766.096,269.019Z" style="fill:white;fill-rule:nonzero;"/>
                    </g>
                </g>
                <g>
                    <g transform="matrix(1,0,0,1,-231.303,184.031)">
                        <path d="M857.242,104.005C857.811,103.982 860.405,103.903 860.564,103.986C866.755,107.19 863.939,116.291 869.591,123.875C877.657,134.697 889.677,132.938 894.523,138.688C895.785,143.856 885.899,144.09 882.651,145.18C873.897,148.118 868.097,155.074 865.817,163.953C864.937,167.383 863.656,172.662 861.989,175.6C854.802,177.451 855.515,168.175 853.856,162.94C852.942,160.002 851.603,157.213 849.881,154.662C841.111,141.916 831.134,146.53 825.57,140.675C824.372,136.203 834.379,134.112 837.743,133.034C854.743,127.589 851.631,115.643 857.242,104.005Z" style="fill:rgb(10,40,73);fill-rule:nonzero;"/>
                    </g>
                    <g transform="matrix(1,0,0,1,-231.303,184.031)">
                        <path d="M859.917,127.436C864.333,133.197 865.958,134.965 871.72,139.331C865.95,143.402 864.129,145.741 860.155,151.531C854.457,144.496 856.73,145.573 848.188,139.377C853.442,135.743 856.315,132.586 859.917,127.436Z" style="fill:white;fill-rule:nonzero;"/>
                    </g>
                </g>
            </g>
        </g>
    </g>
</svg>
